<?xml version="1.0" encoding="UTF-8"?>
<svg xmlns="http://www.w3.org/2000/svg" xmlns:xlink="http://www.w3.org/1999/xlink"
     viewBox="0 0 500 500" width="500" height="500">
  <defs>
    <linearGradient id="bgG" x1="0%" y1="0%" x2="100%" y2="100%">
      <stop offset="0%" style="stop-color:#04462c"/>
      <stop offset="100%" style="stop-color:#022b1a"/>
    </linearGradient>
    <linearGradient id="emG" x1="0%" y1="0%" x2="100%" y2="100%">
      <stop offset="0%" style="stop-color:#033820"/>
      <stop offset="100%" style="stop-color:#011810"/>
    </linearGradient>
    <linearGradient id="cgG" x1="0%" y1="0%" x2="100%" y2="100%">
      <stop offset="0%" style="stop-color:#f7e070"/>
      <stop offset="100%" style="stop-color:#a87208"/>
    </linearGradient>
    <path id="tArc" d="M 57,250 A 193,193 0 0,0 443,250"/>
    <path id="bArc" d="M 73,250 A 177,177 0 0,1 427,250"/>
  </defs>

  <circle cx="250" cy="250" r="242" fill="#a87208"/>
  <circle cx="250" cy="250" r="234" fill="url(#bgG)"/>
  <circle cx="250" cy="250" r="215" fill="none" stroke="#d4a010" stroke-width="1.3" stroke-dasharray="5,5"/>
  <circle cx="250" cy="250" r="207" fill="none" stroke="#b8880a" stroke-width="0.7"/>

  <polygon points="250,42  253,49  250,56  247,49"  fill="#d4a010"/>
  <polygon points="250,444 253,451 250,458 247,451" fill="#d4a010"/>
  <polygon points="42,250  49,247  56,250  49,253"  fill="#d4a010" opacity="0.7"/>
  <polygon points="444,250 451,247 458,250 451,253" fill="#d4a010" opacity="0.7"/>

  <text font-family="Georgia,'Times New Roman',serif" font-size="15.5" font-weight="700" fill="#d4a010" letter-spacing="3">
    <textPath xlink:href="#tArc" startOffset="50%" text-anchor="middle">FONDO DE BENEFICIO FAMILIAR</textPath>
  </text>

  <circle cx="250" cy="192" r="74" fill="url(#emG)"/>
  <circle cx="250" cy="192" r="76" fill="none" stroke="#d4a010" stroke-width="2"/>
  <circle cx="250" cy="192" r="67" fill="none" stroke="#b8880a" stroke-width="0.8" opacity="0.55"/>

  <polygon points="250,116 252.5,123 259,123 254,127 256,134 250,130 244,134 246,127 241,123 247.5,123" fill="#d4a010"/>

  <path d="M179,204 Q153,182 149,152 Q173,164 181,196 Z" fill="#0a6040" stroke="#d4a010" stroke-width="1.1"/>
  <line x1="179" y1="204" x2="155" y2="165" stroke="#011810" stroke-width="0.8" opacity="0.5"/>
  <path d="M177,212 Q144,210 132,189 Q158,189 175,207 Z" fill="#084d33" stroke="#d4a010" stroke-width="1"/>

  <path d="M321,204 Q347,182 351,152 Q327,164 319,196 Z" fill="#0a6040" stroke="#d4a010" stroke-width="1.1"/>
  <line x1="321" y1="204" x2="345" y2="165" stroke="#011810" stroke-width="0.8" opacity="0.5"/>
  <path d="M323,212 Q356,210 368,189 Q342,189 325,207 Z" fill="#084d33" stroke="#d4a010" stroke-width="1"/>

  <circle cx="250" cy="188" r="41" fill="url(#cgG)" stroke="#a87208" stroke-width="2"/>
  <circle cx="250" cy="188" r="33" fill="none" stroke="#f7e070" stroke-width="1" opacity="0.6"/>
  <text x="250" y="203" text-anchor="middle" font-family="Georgia,serif" font-size="38" font-weight="700" fill="#022b1a">$</text>

  <line x1="158" y1="286" x2="342" y2="286" stroke="#d4a010" stroke-width="1.4" opacity="0.8"/>
  <polygon points="250,282 254.5,286 250,290 245.5,286" fill="#d4a010"/>
  <circle cx="163" cy="286" r="2.5" fill="#d4a010" opacity="0.55"/>
  <circle cx="337" cy="286" r="2.5" fill="#d4a010" opacity="0.55"/>

  <text x="250" y="346" text-anchor="middle"
        font-family="Georgia,'Times New Roman',serif"
        font-size="58" font-weight="700"
        fill="#f0f0f0" letter-spacing="11">UFCA</text>

  <line x1="172" y1="360" x2="328" y2="360" stroke="#d4a010" stroke-width="1.2"/>

  <text font-family="Georgia,'Times New Roman',serif" font-size="14.5" font-weight="700" fill="#d4a010" letter-spacing="5">
    <textPath xlink:href="#bArc" startOffset="50%" text-anchor="middle">CRÉDITOS  ·  AHORROS</textPath>
  </text>
</svg>
